<svg xmlns="http://www.w3.org/2000/svg" xmlns:svg="http://www.w3.org/2000/svg" xmlns:xlink="http://www.w3.org/1999/xlink" id="svg2" width="630" height="135" version="1.0"><defs id="defs4"><marker id="TriangleInS" orient="auto" overflow="visible" refX="0" refY="0"><path id="path4263" fill-rule="evenodd" stroke="#000" stroke-width="1pt" marker-start="none" d="M 5.77,0 L -2.88,5 L -2.88,-5 L 5.77,0 z" transform="scale(-0.2,-0.2)"/></marker><marker id="TriangleOutS" orient="auto" overflow="visible" refX="0" refY="0"><path id="path4272" fill-rule="evenodd" stroke="#000" stroke-width="1pt" marker-start="none" d="M 5.77,0 L -2.88,5 L -2.88,-5 L 5.77,0 z" transform="scale(0.2,0.2)"/></marker><marker id="TriangleOutM" orient="auto" overflow="visible" refX="0" refY="0"><path id="path4269" fill-rule="evenodd" stroke="#000" stroke-width="1pt" marker-start="none" d="M 5.77,0 L -2.88,5 L -2.88,-5 L 5.77,0 z" transform="scale(0.4,0.4)"/></marker><marker id="Arrow1Mend" orient="auto" overflow="visible" refX="0" refY="0"><path id="path4132" fill-rule="evenodd" stroke="#000" stroke-width="1pt" marker-start="none" d="M 0,0 L 5,-5 L -12.5,0 L 5,5 L 0,0 z" transform="matrix(-0.4,0,0,-0.4,-4,0)"/></marker><marker id="Arrow1Sstart" orient="auto" overflow="visible" refX="0" refY="0"><path id="path4135" fill-rule="evenodd" stroke="#000" stroke-width="1pt" marker-start="none" d="M 0,0 L 5,-5 L -12.5,0 L 5,5 L 0,0 z" transform="matrix(0.2,0,0,0.2,1.2,0)"/></marker><marker id="Arrow2Lstart" orient="auto" overflow="visible" refX="0" refY="0"><path id="path4141" fill-rule="evenodd" stroke-linejoin="round" stroke-width=".625" d="M 8.7185878,4.0337352 L -2.2072895,0.016013256 L 8.7185884,-4.0017078 C 6.97309,-1.6296469 6.9831476,1.6157441 8.7185878,4.0337352 z" font-size="12" transform="matrix(1.1,0,0,1.1,1.1,0)"/></marker><marker id="Arrow1Lstart" orient="auto" overflow="visible" refX="0" refY="0"><path id="path4123" fill-rule="evenodd" stroke="#000" stroke-width="1pt" marker-start="none" d="M 0,0 L 5,-5 L -12.5,0 L 5,5 L 0,0 z" transform="matrix(0.8,0,0,0.8,10,0)"/></marker><marker id="Arrow2Mstart" orient="auto" overflow="visible" refX="0" refY="0"><path id="path4147" fill-rule="evenodd" stroke-linejoin="round" stroke-width=".625" d="M 8.7185878,4.0337352 L -2.2072895,0.016013256 L 8.7185884,-4.0017078 C 6.97309,-1.6296469 6.9831476,1.6157441 8.7185878,4.0337352 z" font-size="12" transform="scale(0.6,0.6)"/></marker></defs><metadata id="metadata7"/><g id="layer1"><path id="path11557" fill="none" fill-rule="evenodd" stroke="#000" stroke-dasharray="none" stroke-linecap="butt" stroke-linejoin="miter" stroke-miterlimit="4" stroke-opacity="1" stroke-width="2.25" d="M 230.6911,54.143596 L 135,78.75"/><path id="path10785" fill="none" fill-rule="evenodd" stroke="#000" stroke-dasharray="none" stroke-linecap="butt" stroke-linejoin="miter" stroke-miterlimit="4" stroke-opacity="1" stroke-width="2.25" d="M 247.95,56.25 L 247.95,78.75"/><path id="path4118" fill="none" fill-rule="evenodd" stroke="#000" stroke-dasharray="none" stroke-linecap="butt" stroke-linejoin="miter" stroke-miterlimit="4" stroke-opacity="1" stroke-width="8.124" marker-end="url(#TriangleOutS)" marker-mid="none" marker-start="none" d="M 55.812205,101.25 L 89.77536,101.25"/><path id="path10220" fill="none" fill-rule="evenodd" stroke="#000" stroke-dasharray="none" stroke-linecap="butt" stroke-linejoin="miter" stroke-miterlimit="4" stroke-opacity="1" stroke-width="7.408" marker-end="url(#TriangleOutS)" marker-mid="none" marker-start="url(#TriangleInS)" d="M 516.10192,101.25 L 542.45524,101.25"/><path id="path10781" fill="none" fill-rule="evenodd" stroke="#000" stroke-dasharray="none" stroke-linecap="butt" stroke-linejoin="miter" stroke-miterlimit="4" stroke-opacity="1" stroke-width="7.326" marker-end="url(#TriangleOutS)" marker-mid="none" marker-start="url(#TriangleInS)" d="M 403.92054,101.25 L 429.48195,101.25"/><path id="path10783" fill="none" fill-rule="evenodd" stroke="#000" stroke-dasharray="none" stroke-linecap="butt" stroke-linejoin="miter" stroke-miterlimit="4" stroke-opacity="1" stroke-width="7.326" marker-end="url(#TriangleOutS)" marker-mid="none" marker-start="url(#TriangleInS)" d="M 291.29513,101.80229 L 316.85654,101.80229"/><g id="g3596" transform="matrix(0.5,0,0,0.5,180.90849,-33.525)"><rect id="rect3582" width="90" height="67.221" x="90" y="100.831" fill="#e8e8e8" fill-opacity="1" stroke="none" stroke-dasharray="none" stroke-dashoffset="0" stroke-miterlimit="4" stroke-opacity="1" stroke-width=".9"/><path id="path3580" fill="#e8e8e8" fill-opacity="1" stroke="#000" stroke-dasharray="none" stroke-dashoffset="0" stroke-miterlimit="4" stroke-opacity="1" stroke-width=".9" d="M 180,101.25 A 45,11.25 0 1 1 90,101.25 A 45,11.25 0 1 1 180,101.25 z"/><path id="path3584" fill="#e8e8e8" fill-opacity="1" stroke="none" stroke-dasharray="none" stroke-dashoffset="0" stroke-miterlimit="4" stroke-opacity="1" stroke-width=".9" d="M 180,101.25 A 45,11.25 0 1 1 90,101.25 L 135,101.25 z" transform="matrix(1,0,0,1.0799999,0,58.500006)"/><path id="path3586" fill="none" fill-opacity="1" stroke="#000" stroke-dasharray="none" stroke-dashoffset="0" stroke-miterlimit="4" stroke-opacity="1" stroke-width=".9" d="M 180,101.25 A 45,11.25 0 1 1 90,101.25" transform="translate(-0.45,67.05)"/><path id="path3588" fill="none" fill-rule="evenodd" stroke="#000" stroke-linecap="butt" stroke-linejoin="miter" stroke-opacity="1" stroke-width="1" d="M 90,99.9365 L 89.583023,168.73466"/><path id="path3590" fill="none" fill-rule="evenodd" stroke="#000" stroke-linecap="butt" stroke-linejoin="miter" stroke-opacity="1" stroke-width="1" d="M 180,100.94936 L 179.58302,169.74752"/><text font-family="Bitstream Vera Sans" style="text-align:center;line-height:125%;-inkscape-font-specification:Bitstream Vera Sans" id="text3592" x="134.303" y="149.58" fill="#000" fill-opacity="1" stroke="none" stroke-linecap="butt" stroke-linejoin="miter" stroke-opacity="1" stroke-width="1" font-size="20" font-stretch="normal" font-style="normal" font-variant="normal" font-weight="normal" text-anchor="middle" writing-mode="lr-tb" xml:space="preserve"><tspan id="tspan3594" x="134.303" y="149.58">PPD</tspan></text></g><g id="g3893" transform="matrix(0.5,0,0,0.5,315.58501,-10.934996)"><rect id="rect3887" width="90" height="51.961" x="611.203" y="207.326" fill="#e8e8e8" fill-opacity="1" stroke="#747474" stroke-dasharray="none" stroke-dashoffset="0" stroke-miterlimit="4" stroke-opacity="1" stroke-width=".387" transform="matrix(1,0,-0.4999983,0.8660264,0,0)"/><rect id="rect3885" width="135" height="67.5" x="472.05" y="202.05" fill="#e8e8e8" fill-opacity="1" stroke="#747474" stroke-dasharray="none" stroke-dashoffset="0" stroke-miterlimit="4" stroke-opacity="1" stroke-width=".36" rx="10" ry="10"/><text id="text3889" x="481.964" y="246.484" fill="#000" fill-opacity="1" stroke="none" stroke-linecap="butt" stroke-linejoin="miter" stroke-opacity="1" stroke-width="1" font-family="Bitstream Vera Sans" font-size="32" font-stretch="normal" font-style="normal" font-variant="normal" font-weight="normal" text-anchor="start" writing-mode="lr-tb" xml:space="preserve" style="text-align:start;line-height:125%;-inkscape-font-specification:Bitstream Vera Sans"><tspan id="tspan3891" x="481.964" y="246.484">Printer</tspan></text></g><g id="g3853" transform="matrix(0.5,0,0,0.5,304.65,-1.5258789e-6)"><g id="g4104"><rect id="rect3855" width="135" height="90" x="44.1" y="157.5" fill="#e8e8e8" fill-opacity="1" stroke="#000" stroke-dasharray=".9 .9" stroke-dashoffset="0" stroke-miterlimit="4" stroke-opacity="1" stroke-width=".9"/><flowRoot id="flowRoot3857" fill="#000" fill-opacity="1" stroke="none" stroke-linecap="butt" stroke-linejoin="miter" stroke-opacity="1" stroke-width="1" font-family="Bitstream Vera Sans" font-size="20" font-stretch="normal" font-style="normal" font-variant="normal" font-weight="normal" text-anchor="middle" transform="translate(111.78164,191.19532)" writing-mode="lr-tb" xml:space="preserve" style="text-align:center;line-height:100%;-inkscape-font-specification:Bitstream Vera Sans"><flowRegion id="flowRegion3859"/><flowPara id="flowPara3863">Optional</flowPara><flowPara id="flowPara3865">Port</flowPara><flowPara id="flowPara3867">Monitor</flowPara></flowRoot></g></g><g id="g4083" transform="translate(135.675,-0.225)"><g id="g4112" transform="translate(-0.45,-10.8)"><rect id="rect3814" width="67.5" height="45" x="303.75" y="90" fill="#7fff00" fill-opacity="1" stroke="#000" stroke-dasharray="none" stroke-miterlimit="4" stroke-opacity="1" stroke-width=".45"/><flowRoot id="flowRoot3816" fill="#000" fill-opacity="1" stroke="none" stroke-linecap="butt" stroke-linejoin="miter" stroke-opacity="1" stroke-width="1" font-family="Bitstream Vera Sans" font-size="20" font-stretch="normal" font-style="normal" font-variant="normal" font-weight="normal" text-anchor="middle" transform="matrix(0.5,0,0,0.5,338.14944,116.67659)" writing-mode="lr-tb" xml:space="preserve" style="text-align:center;line-height:100%;-inkscape-font-specification:Bitstream Vera Sans"><flowRegion id="flowRegion3818"/><flowPara id="flowPara3822">Backend</flowPara></flowRoot></g></g><g id="g11327" transform="translate(0,-10.8)"><g id="g3564" transform="matrix(0.5,0,0,0.5,191.475,-0.225)"><flowRoot id="flowRoot3568" fill="#000" fill-opacity="1" stroke="none" stroke-linecap="butt" stroke-linejoin="miter" stroke-opacity="1" stroke-width="1" font-family="Bitstream Vera Sans" font-size="20" font-stretch="normal" font-style="normal" font-variant="normal" font-weight="normal" text-anchor="middle" transform="translate(-0.7816377,17.247326)" writing-mode="lr-tb" xml:space="preserve" style="text-align:center;line-height:100%;-inkscape-font-specification:Bitstream Vera Sans"><flowRegion id="flowRegion3570"><use id="use3572" width="630" height="630" x="0" y="0" xlink:href="#rect2768"/></flowRegion><flowPara id="flowPara3574">Optional</flowPara><flowPara id="flowPara3578">PostScript</flowPara><flowPara id="flowPara3576">Filter</flowPara></flowRoot><g id="g11354"><rect id="rect3566" width="135" height="90" x="45" y="180" fill="#e8e8e8" fill-opacity="1" stroke="#000" stroke-dasharray=".9 1.8" stroke-dashoffset="0" stroke-miterlimit="4" stroke-opacity="1" stroke-width=".9"/><text font-family="Bitstream Vera Sans" style="text-align:center;line-height:100%;-inkscape-font-specification:Bitstream Vera Sans" id="text11346" x="112.477" y="213.245" fill="#000" fill-opacity="1" stroke="none" stroke-linecap="butt" stroke-linejoin="miter" stroke-opacity="1" stroke-width="1" font-size="20" font-stretch="normal" font-style="normal" font-variant="normal" font-weight="normal" text-anchor="middle" writing-mode="lr-tb" xml:space="preserve"><tspan id="tspan11348" x="112.477" y="213.245">Optional</tspan><tspan id="tspan11350" x="112.477" y="233.245">PostScript</tspan><tspan id="tspan11352" x="112.477" y="253.245">Filter</tspan></text></g></g></g><g id="g3693" transform="matrix(0.5,0,0,0.5,191.84368,-23.741102)"><g id="g11542" transform="translate(-450.27038,115.4322)"><rect id="rect3646" width="90" height="67.221" x="90" y="100.831" fill="#e8e8e8" fill-opacity="1" stroke="none" stroke-dasharray="none" stroke-dashoffset="0" stroke-miterlimit="4" stroke-opacity="1" stroke-width=".9"/><path id="path3648" fill="#e8e8e8" fill-opacity="1" stroke="#000" stroke-dasharray="none" stroke-dashoffset="0" stroke-miterlimit="4" stroke-opacity="1" stroke-width=".9" d="M 180,101.25 A 45,11.25 0 1 1 90,101.25 A 45,11.25 0 1 1 180,101.25 z"/><path id="path3650" fill="#e8e8e8" fill-opacity="1" stroke="none" stroke-dasharray="none" stroke-dashoffset="0" stroke-miterlimit="4" stroke-opacity="1" stroke-width=".9" d="M 180,101.25 A 45,11.25 0 1 1 90,101.25 L 135,101.25 z" transform="matrix(1,0,0,1.0799999,0,58.500006)"/><path id="path3652" fill="none" fill-opacity="1" stroke="#000" stroke-dasharray="none" stroke-dashoffset="0" stroke-miterlimit="4" stroke-opacity="1" stroke-width=".9" d="M 180,101.25 A 45,11.25 0 1 1 90,101.25" transform="translate(-0.45,67.05)"/><path id="path3654" fill="none" fill-rule="evenodd" stroke="#000" stroke-linecap="butt" stroke-linejoin="miter" stroke-opacity="1" stroke-width="1" d="M 90,99.9365 L 89.583023,168.73466"/><path id="path3656" fill="none" fill-rule="evenodd" stroke="#000" stroke-linecap="butt" stroke-linejoin="miter" stroke-opacity="1" stroke-width="1" d="M 180,100.94936 L 179.58302,169.74752"/><text font-family="Bitstream Vera Sans" style="text-align:center;line-height:125%;-inkscape-font-specification:Bitstream Vera Sans" id="text3658" x="134.303" y="139.58" fill="#000" fill-opacity="1" stroke="none" stroke-linecap="butt" stroke-linejoin="miter" stroke-opacity="1" stroke-width="1" font-size="20" font-stretch="normal" font-style="normal" font-variant="normal" font-weight="normal" text-anchor="middle" writing-mode="lr-tb" xml:space="preserve"><tspan id="tspan3660" x="134.303" y="139.58">Print</tspan><tspan id="tspan3662" x="134.303" y="164.58">File</tspan></text></g><g id="g11399" transform="translate(-450.27038,114.0822)"><g id="g3622" transform="translate(392.34954,180.45)"><g id="g3636"><g id="g3786" transform="translate(-167.81652,-270)"><rect id="rect3624" width="135" height="90" x="45" y="180" fill="#7fff00" fill-opacity="1" stroke="#000" stroke-dasharray="none" stroke-miterlimit="4" stroke-opacity="1" stroke-width=".9"/><flowRoot id="flowRoot3626" fill="#000" fill-opacity="1" stroke="none" stroke-linecap="butt" stroke-linejoin="miter" stroke-opacity="1" stroke-width="1" font-family="Bitstream Vera Sans" font-size="20" font-stretch="normal" font-style="normal" font-variant="normal" font-weight="normal" text-anchor="middle" transform="translate(-2.7816377,25.247326)" writing-mode="lr-tb" xml:space="preserve" style="text-align:center;line-height:100%;-inkscape-font-specification:Bitstream Vera Sans"><flowRegion id="flowRegion3628"><use id="use3630" width="630" height="630" x="0" y="0" xlink:href="#rect2768"/></flowRegion><flowPara id="flowPara3632">CUPS</flowPara><flowPara id="flowPara3634">Filters</flowPara></flowRoot></g></g></g><text id="text11380" x="336.274" y="130.699" fill="#000" fill-opacity="1" stroke="none" stroke-linecap="butt" stroke-linejoin="miter" stroke-opacity="1" stroke-width="1" font-family="Bitstream Vera Sans" font-size="20" font-stretch="normal" font-style="normal" font-variant="normal" font-weight="normal" text-anchor="middle" writing-mode="lr-tb" xml:space="preserve" style="text-align:center;line-height:125%;-inkscape-font-specification:Bitstream Vera Sans"><tspan id="tspan11382" x="336.274" y="130.699">CUPS</tspan><tspan id="tspan11384" x="336.274" y="155.699">Filters</tspan></text></g></g><path id="path11553" fill="none" fill-rule="evenodd" stroke="#000" stroke-dasharray="none" stroke-linecap="butt" stroke-linejoin="miter" stroke-miterlimit="4" stroke-opacity="1" stroke-width="8.124" marker-end="url(#TriangleOutS)" marker-mid="none" marker-start="none" d="M 168.75,101.25 L 202.71316,101.25"/></g></svg>