<svg xmlns="http://www.w3.org/2000/svg" xmlns:svg="http://www.w3.org/2000/svg" id="svg2" width="517.5" height="135" version="1.0"><defs id="defs4"><marker id="TriangleInS" orient="auto" overflow="visible" refX="0" refY="0"><path id="path4263" fill-rule="evenodd" stroke="#000" stroke-width="1pt" marker-start="none" d="M 5.77,0.0 L -2.88,5.0 L -2.88,-5.0 L 5.77,0.0 z" transform="scale(-0.2)"/></marker><marker id="TriangleOutS" orient="auto" overflow="visible" refX="0" refY="0"><path id="path4272" fill-rule="evenodd" stroke="#000" stroke-width="1pt" marker-start="none" d="M 5.77,0.0 L -2.88,5.0 L -2.88,-5.0 L 5.77,0.0 z" transform="scale(0.2)"/></marker><marker id="TriangleOutM" orient="auto" overflow="visible" refX="0" refY="0"><path id="path4269" fill-rule="evenodd" stroke="#000" stroke-width="1pt" marker-start="none" d="M 5.77,0.0 L -2.88,5.0 L -2.88,-5.0 L 5.77,0.0 z" transform="scale(0.4)"/></marker><marker id="Arrow1Mend" orient="auto" overflow="visible" refX="0" refY="0"><path id="path4132" fill-rule="evenodd" stroke="#000" stroke-width="1pt" marker-start="none" d="M 0.0,0.0 L 5.0,-5.0 L -12.5,0.0 L 5.0,5.0 L 0.0,0.0 z" transform="scale(0.4) rotate(180) translate(10,0)"/></marker><marker id="Arrow1Sstart" orient="auto" overflow="visible" refX="0" refY="0"><path id="path4135" fill-rule="evenodd" stroke="#000" stroke-width="1pt" marker-start="none" d="M 0.0,0.0 L 5.0,-5.0 L -12.5,0.0 L 5.0,5.0 L 0.0,0.0 z" transform="scale(0.2) translate(6,0)"/></marker><marker id="Arrow2Lstart" orient="auto" overflow="visible" refX="0" refY="0"><path id="path4141" fill-rule="evenodd" stroke-linejoin="round" stroke-width=".625" d="M 8.7185878,4.0337352 L -2.2072895,0.016013256 L 8.7185884,-4.0017078 C 6.9730900,-1.6296469 6.9831476,1.6157441 8.7185878,4.0337352 z" font-size="12" transform="scale(1.1) translate(1,0)"/></marker><marker id="Arrow1Lstart" orient="auto" overflow="visible" refX="0" refY="0"><path id="path4123" fill-rule="evenodd" stroke="#000" stroke-width="1pt" marker-start="none" d="M 0.0,0.0 L 5.0,-5.0 L -12.5,0.0 L 5.0,5.0 L 0.0,0.0 z" transform="scale(0.8) translate(12.5,0)"/></marker><marker id="Arrow2Mstart" orient="auto" overflow="visible" refX="0" refY="0"><path id="path4147" fill-rule="evenodd" stroke-linejoin="round" stroke-width=".625" d="M 8.7185878,4.0337352 L -2.2072895,0.016013256 L 8.7185884,-4.0017078 C 6.9730900,-1.6296469 6.9831476,1.6157441 8.7185878,4.0337352 z" font-size="12" transform="scale(0.6) translate(0,0)"/></marker></defs><metadata id="metadata7"/><g id="layer1"><path id="path10785" fill="none" fill-rule="evenodd" stroke="#000" stroke-dasharray="none" stroke-linecap="butt" stroke-linejoin="miter" stroke-miterlimit="4" stroke-opacity="1" stroke-width="2.25" d="M 135,56.25 L 135,78.75"/><path id="path4118" fill="none" fill-rule="evenodd" stroke="#000" stroke-dasharray="none" stroke-linecap="butt" stroke-linejoin="miter" stroke-miterlimit="4" stroke-opacity="1" stroke-width="8.124" marker-end="url(#TriangleOutS)" marker-mid="none" marker-start="none" d="M 55.812205,101.25 L 89.77536,101.25"/><path id="path10220" fill="none" fill-rule="evenodd" stroke="#000" stroke-dasharray="none" stroke-linecap="butt" stroke-linejoin="miter" stroke-miterlimit="4" stroke-opacity="1" stroke-width="7.408" marker-end="url(#TriangleOutS)" marker-mid="none" marker-start="url(#TriangleInS)" d="M 403.15192,101.25 L 429.50524,101.25"/><path id="path10781" fill="none" fill-rule="evenodd" stroke="#000" stroke-dasharray="none" stroke-linecap="butt" stroke-linejoin="miter" stroke-miterlimit="4" stroke-opacity="1" stroke-width="7.326" marker-end="url(#TriangleOutS)" marker-mid="none" marker-start="url(#TriangleInS)" d="M 290.97054,101.25 L 316.53195,101.25"/><path id="path10783" fill="none" fill-rule="evenodd" stroke="#000" stroke-dasharray="none" stroke-linecap="butt" stroke-linejoin="miter" stroke-miterlimit="4" stroke-opacity="1" stroke-width="7.326" marker-end="url(#TriangleOutS)" marker-mid="none" marker-start="url(#TriangleInS)" d="M 178.34513,101.80229 L 203.90654,101.80229"/><g id="g3596" transform="matrix(0.5,0,0,0.5,67.958488,-33.525)"><rect id="rect3582" width="90" height="67.221" x="90" y="100.831" fill="#e8e8e8" fill-opacity="1" stroke="none" stroke-dasharray="none" stroke-dashoffset="0" stroke-miterlimit="4" stroke-opacity="1" stroke-width=".9"/><path id="path3580" fill="#e8e8e8" fill-opacity="1" stroke="#000" stroke-dasharray="none" stroke-dashoffset="0" stroke-miterlimit="4" stroke-opacity="1" stroke-width=".9" d="M 180,101.25 A 45,11.25 0 1 1 90,101.25 A 45,11.25 0 1 1 180,101.25 z"/><path id="path3584" fill="#e8e8e8" fill-opacity="1" stroke="none" stroke-dasharray="none" stroke-dashoffset="0" stroke-miterlimit="4" stroke-opacity="1" stroke-width=".9" d="M 180,101.25 A 45,11.25 0 1 1 90,101.25 L 135,101.25 z" transform="matrix(1,0,0,1.0799999,0,58.500006)"/><path id="path3586" fill="none" fill-opacity="1" stroke="#000" stroke-dasharray="none" stroke-dashoffset="0" stroke-miterlimit="4" stroke-opacity="1" stroke-width=".9" d="M 180,101.25 A 45,11.25 0 1 1 90,101.25" transform="translate(-0.45,67.05)"/><path id="path3588" fill="none" fill-rule="evenodd" stroke="#000" stroke-linecap="butt" stroke-linejoin="miter" stroke-opacity="1" stroke-width="1" d="M 90,99.9365 L 89.583023,168.73466"/><path id="path3590" fill="none" fill-rule="evenodd" stroke="#000" stroke-linecap="butt" stroke-linejoin="miter" stroke-opacity="1" stroke-width="1" d="M 180,100.94936 L 179.58302,169.74752"/><text font-family="Bitstream Vera Sans" style="text-align:center;line-height:125%;-inkscape-font-specification:Bitstream Vera Sans" id="text3592" x="134.303" y="149.58" fill="#000" fill-opacity="1" stroke="none" stroke-linecap="butt" stroke-linejoin="miter" stroke-opacity="1" stroke-width="1" font-size="20" font-stretch="normal" font-style="normal" font-variant="normal" font-weight="normal" text-anchor="middle" writing-mode="lr-tb" xml:space="preserve"><tspan id="tspan3594" x="134.303" y="149.58">PPD</tspan></text></g><g id="g4096" transform="translate(0.2249985,-11.025002)"><rect id="rect3608" width="67.5" height="45" x="101.025" y="89.775" fill="#e8e8e8" fill-opacity="1" stroke="#000" stroke-dasharray=".45 .45" stroke-dashoffset="0" stroke-miterlimit="4" stroke-opacity="1" stroke-width=".45"/><flowRoot id="flowRoot3610" fill="#000" fill-opacity="1" stroke="none" stroke-linecap="butt" stroke-linejoin="miter" stroke-opacity="1" stroke-width="1" font-family="Bitstream Vera Sans" font-size="20" font-stretch="normal" font-style="normal" font-variant="normal" font-weight="normal" text-anchor="middle" transform="matrix(0.5,0,0,0.5,134.70508,106.84766)" writing-mode="lr-tb" xml:space="preserve" style="text-align:center;line-height:100%;-inkscape-font-specification:Bitstream Vera Sans"><flowRegion id="flowRegion3612"/><flowPara id="flowPara3616">Optional</flowPara><flowPara id="flowPara3620">Command</flowPara><flowPara id="flowPara3618">Filter</flowPara></flowRoot></g><g id="g3724" transform="matrix(0.5,0,0,0.5,-33.291512,33.75)"><g id="g3744"><rect id="rect3726" width="90" height="67.221" x="90" y="100.831" fill="#e8e8e8" fill-opacity="1" stroke="none" stroke-dasharray="none" stroke-dashoffset="0" stroke-miterlimit="4" stroke-opacity="1" stroke-width=".9"/><path id="path3728" fill="#e8e8e8" fill-opacity="1" stroke="#000" stroke-dasharray="none" stroke-dashoffset="0" stroke-miterlimit="4" stroke-opacity="1" stroke-width=".9" d="M 180,101.25 A 45,11.25 0 1 1 90,101.25 A 45,11.25 0 1 1 180,101.25 z"/><path id="path3730" fill="#e8e8e8" fill-opacity="1" stroke="none" stroke-dasharray="none" stroke-dashoffset="0" stroke-miterlimit="4" stroke-opacity="1" stroke-width=".9" d="M 180,101.25 A 45,11.25 0 1 1 90,101.25 L 135,101.25 z" transform="matrix(1,0,0,1.0799999,0,58.500006)"/><path id="path3732" fill="none" fill-opacity="1" stroke="#000" stroke-dasharray="none" stroke-dashoffset="0" stroke-miterlimit="4" stroke-opacity="1" stroke-width=".9" d="M 180,101.25 A 45,11.25 0 1 1 90,101.25" transform="translate(-0.45,67.05)"/><path id="path3734" fill="none" fill-rule="evenodd" stroke="#000" stroke-linecap="butt" stroke-linejoin="miter" stroke-opacity="1" stroke-width="1" d="M 90,99.9365 L 89.583023,168.73466"/><path id="path3736" fill="none" fill-rule="evenodd" stroke="#000" stroke-linecap="butt" stroke-linejoin="miter" stroke-opacity="1" stroke-width="1" d="M 180,100.94936 L 179.58302,169.74752"/><text font-family="Bitstream Vera Sans" style="text-align:center;line-height:100%;-inkscape-font-specification:Bitstream Vera Sans" id="text3738" x="134.303" y="139.58" fill="#000" fill-opacity="1" stroke="none" stroke-linecap="butt" stroke-linejoin="miter" stroke-opacity="1" stroke-width="1" font-size="16" font-stretch="normal" font-style="normal" font-variant="normal" font-weight="normal" text-anchor="middle" writing-mode="lr-tb" xml:space="preserve"><tspan id="tspan3740" x="134.303" y="139.58">Command</tspan><tspan id="tspan3742" x="134.303" y="155.58">File</tspan></text></g></g><g id="g3893" transform="matrix(0.5,0,0,0.5,202.63501,-10.934996)"><rect id="rect3887" width="90" height="51.961" x="611.203" y="207.326" fill="#e8e8e8" fill-opacity="1" stroke="#747474" stroke-dasharray="none" stroke-dashoffset="0" stroke-miterlimit="4" stroke-opacity="1" stroke-width=".387" transform="matrix(1,0,-0.4999983,0.8660264,0,0)"/><rect id="rect3885" width="135" height="67.5" x="472.05" y="202.05" fill="#e8e8e8" fill-opacity="1" stroke="#747474" stroke-dasharray="none" stroke-dashoffset="0" stroke-miterlimit="4" stroke-opacity="1" stroke-width=".36" rx="10" ry="10"/><text id="text3889" x="481.964" y="246.484" fill="#000" fill-opacity="1" stroke="none" stroke-linecap="butt" stroke-linejoin="miter" stroke-opacity="1" stroke-width="1" font-family="Bitstream Vera Sans" font-size="32" font-stretch="normal" font-style="normal" font-variant="normal" font-weight="normal" text-anchor="start" writing-mode="lr-tb" xml:space="preserve" style="text-align:start;line-height:125%;-inkscape-font-specification:Bitstream Vera Sans"><tspan id="tspan3891" x="481.964" y="246.484">Printer</tspan></text></g><g id="g3853" transform="matrix(0.5,0,0,0.5,191.7,-1.5199184e-6)"><g id="g4104"><rect id="rect3855" width="135" height="90" x="44.1" y="157.5" fill="#e8e8e8" fill-opacity="1" stroke="#000" stroke-dasharray=".9 .9" stroke-dashoffset="0" stroke-miterlimit="4" stroke-opacity="1" stroke-width=".9"/><flowRoot id="flowRoot3857" fill="#000" fill-opacity="1" stroke="none" stroke-linecap="butt" stroke-linejoin="miter" stroke-opacity="1" stroke-width="1" font-family="Bitstream Vera Sans" font-size="20" font-stretch="normal" font-style="normal" font-variant="normal" font-weight="normal" text-anchor="middle" transform="translate(111.78164,191.19532)" writing-mode="lr-tb" xml:space="preserve" style="text-align:center;line-height:100%;-inkscape-font-specification:Bitstream Vera Sans"><flowRegion id="flowRegion3859"/><flowPara id="flowPara3863">Optional</flowPara><flowPara id="flowPara3865">Port</flowPara><flowPara id="flowPara3867">Monitor</flowPara></flowRoot></g></g><g id="g4083" transform="translate(22.725,-0.225)"><g id="g4112" transform="translate(-0.45,-10.8)"><rect id="rect3814" width="67.5" height="45" x="303.75" y="90" fill="#7fff00" fill-opacity="1" stroke="#000" stroke-dasharray="none" stroke-miterlimit="4" stroke-opacity="1" stroke-width=".45"/><flowRoot id="flowRoot3816" fill="#000" fill-opacity="1" stroke="none" stroke-linecap="butt" stroke-linejoin="miter" stroke-opacity="1" stroke-width="1" font-family="Bitstream Vera Sans" font-size="20" font-stretch="normal" font-style="normal" font-variant="normal" font-weight="normal" text-anchor="middle" transform="matrix(0.5,0,0,0.5,338.14944,116.67659)" writing-mode="lr-tb" xml:space="preserve" style="text-align:center;line-height:100%;-inkscape-font-specification:Bitstream Vera Sans"><flowRegion id="flowRegion3818"/><flowPara id="flowPara3822">Backend</flowPara></flowRoot></g></g></g></svg>